# xmcd CD database file
#
# Track frame offsets:
#	160
#	29592
#	60782
#	92247
#	123835
#	140522
#	159910
#	186385
#	206712
#	230042
#	253997
#
# Disc length: 3717 seconds
#
# Revision: 0
# Processed by: cddbd v1.5.1PL0 Copyright (c) Steve Scherf et al.
# Submitted via: CDex 1.51
#
DISCID=9c0e830b
DTITLE=The String Trio Of New York - Intermobility
DYEAR=1992
DGENRE=Jazz
TTITLE0=Ju Ju
TTITLE1=Peace
TTITLE2=Ephemera Trilogy
TTITLE3=Fortune On A Sphere
TTITLE4=17 West
TTITLE5=Reets and I/Little Willie Leaps
TTITLE6=Ruby My Dear
TTITLE7=Seven Vice
TTITLE8=Falling River Time
TTITLE9=House Party Starting
TTITLE10=The Wall
EXTD=YEAR: 1992
EXTT0=
EXTT1=
EXTT2=
EXTT3=
EXTT4=
EXTT5=
EXTT6=
EXTT7=
EXTT8=
EXTT9=
EXTT10=
PLAYORDER=
